PathFileType	4	(X/Y/Z)	..\data\2015026\dynamic\2015026_C5_03.trc
DataRate	CameraRate	NumFrames	NumMarkers	Units	OrigDataRate	OrigDataStartFrame	OrigNumFrames
100.000000	100.000000	4	48	mm	100.000000	85	136
Frame#	Time	L_IAS			L_IPS			R_IPS			R_IAS			L_FTC			L_FLE			L_FAX			L_TTC			L_FAL			L_FCC			L_FM1			L_FM2			L_FM5			R_FTC			R_FLE			R_FAX			R_TTC			R_FAL			R_FCC			R_FM1			R_FM2			R_FM5			CV7			TV10			SXS			SJN			L_SIA			L_SRS			L_SAA			L_SAE			L_HLE			L_HME			L_UOA			L_RSP			L_UHE			L_HM2			L_HM5			R_SIA			R_SRS			R_SAA			R_SAE			R_HLE			R_HME			R_UOA			R_RSP			R_UHE			R_HM2			R_HM5			
		X1	Y1	Z1	X2	Y2	Z2	X3	Y3	Z3	X4	Y4	Z4	X5	Y5	Z5	X6	Y6	Z6	X7	Y7	Z7	X8	Y8	Z8	X9	Y9	Z9	X10	Y10	Z10	X11	Y11	Z11	X12	Y12	Z12	X13	Y13	Z13	X14	Y14	Z14	X15	Y15	Z15	X16	Y16	Z16	X17	Y17	Z17	X18	Y18	Z18	X19	Y19	Z19	X20	Y20	Z20	X21	Y21	Z21	X22	Y22	Z22	X23	Y23	Z23	X24	Y24	Z24	X25	Y25	Z25	X26	Y26	Z26	X27	Y27	Z27	X28	Y28	Z28	X29	Y29	Z29	X30	Y30	Z30	X31	Y31	Z31	X32	Y32	Z32	X33	Y33	Z33	X34	Y34	Z34	X35	Y35	Z35	X36	Y36	Z36	X37	Y37	Z37	X38	Y38	Z38	X39	Y39	Z39	X40	Y40	Z40	X41	Y41	Z41	X42	Y42	Z42	X43	Y43	Z43	X44	Y44	Z44	X45	Y45	Z45	X46	Y46	Z46	X47	Y47	Z47	X48	Y48	Z48	

86	0.85	159.5677947998047	917.2446289062502	56.3833160400391	-26.00560569763186	928.4531860351565	132.377197265625	-10.78534126281741	927.6932373046877	246.846664428711	180.8300323486328	913.4210205078127	276.4224243164063	65.22338104248048	843.8334960937502	0.1787391304969868	-46.70309448242189	445.757293701172	72.62261199951173	-82.98872375488284	404.2130126953126	66.9195556640625	-30.40874099731447	376.8126220703126	125.6379089355469	-188.8560180664063	77.4998016357422	94.99114990234374	-243.9966430664063	34.6650619506836	127.4260025024414	-55.20657348632816	15.51523876190186	178.3639221191407	-41.82285308837893	32.90512084960938	123.4360427856446	-86.0199890136719	18.10840034484864	66.10897064208984	105.2503967285156	825.4853515625002	350.8028869628907	296.3301391601562	471.9599609375001	287.7744750976564	289.6499633789062	405.725555419922	290.4620361328126	353.8246765136719	415.6763000488282	248.9027099609376	407.2058715820313	71.63052368164064	281.1541748046876	387.4578552246095	20.92854690551758	231.1570587158204	569.4089355468751	90.18554687500001	223.3620452880861	557.5243530273439	93.80323791503908	273.5991516113282	525.8388671875001	60.23827743530275	311.6712646484376	18.35371780395506	1407.655639648438	177.5930633544922	-50.97052383422855	1169.555419921875	165.4599609375	172.6666870117188	1108.5458984375	161.7206115722657	142.0268707275391	1324.517700195313	165.3118591308594	-53.01133728027346	1207.651489257813	85.94544982910158	-28.76119041442873	1340.032592773438	87.53521728515626	16.74940872192383	1351.065551757813	4.70205879211426	58.23204421997072	1352.723510742188	-13.56756687164306	100.9410400390625	1050.136840820313	-93.56867218017578	55.13016891479494	1024.243896484375	-28.0391960144043	67.55450439453128	1016.823791503906	-75.10828399658203	266.4167785644532	882.6553344726565	4.790141582489047	220.9690551757813	848.373962402344	-47.74505996704099	326.0422058105469	827.8963012695315	14.48926162719731	253.7983856201172	781.1973266601565	-35.91943740844724	-52.7171897888184	1205.19287109375	245.2450103759766	-26.54666900634769	1335.9716796875	220.0955505371094	21.844856262207	1348.557373046875	325.5415039062501	73.32314300537107	1344.6767578125	350.9405822753907	-19.00710296630865	1046.361450195313	400.4458618164064	-44.41300964355474	1037.25	325.8887329101563	-52.27470016479498	1035.47119140625	371.3835754394532	-10.02984142303472	790.6689453125002	407.9813232421876	-85.01770019531257	816.382751464844	418.5232849121095	-42.34785461425787	703.4655761718751	412.4194946289064	-124.6134109497071	760.3605957031251	420.7786254882814	
87	0.86	176.913330078125	914.025085449219	56.07246017456058	-8.255037307739276	925.3327636718752	133.833740234375	7.474100112915011	924.5286254882815	248.0447387695313	199.5248260498047	910.4453125000002	276.2689819335938	80.87574768066408	841.0937500000002	1.593230485916148	-34.32657623291017	444.4253540039064	73.32756805419923	-72.02816009521487	403.8266601562501	67.78615570068359	-20.03453254699709	374.8159484863282	126.5045547485352	-187.6628875732422	80.3051223754883	94.85449218749999	-243.9537506103516	38.80340194702149	127.1579208374023	-55.13194274902347	15.06776714324952	178.447738647461	-41.61250305175783	32.6352653503418	123.5149154663086	-85.8957214355469	17.91204452514649	66.17353820800781	124.293830871582	822.4002075195315	351.4252319335938	315.60009765625	469.897674560547	286.9770507812501	310.0467224121094	403.302459716797	289.9264526367189	373.8347473144531	414.4782714843751	247.6209869384767	436.3060302734376	71.63372039794923	280.2764892578126	417.1091308593751	20.18109321594239	230.5280914306642	597.6860351562501	93.90867614746095	220.6819610595705	586.3189697265626	97.2109298706055	271.1926574707032	555.7454223632814	62.64467239379884	309.4067687988282	36.32201385498045	1404.388427734375	178.1632843017578	-33.15868759155276	1166.36181640625	166.0467834472657	190.2358551025391	1104.816162109375	161.8689727783204	159.9622955322266	1321.02587890625	165.6492919921876	-35.37899780273439	1204.49853515625	86.47115325927736	-10.95326519012452	1336.96240234375	87.99166107177736	34.53765487670899	1347.873046875	5.07891988754273	76.02542114257814	1349.459838867188	-13.19998359680175	120.5988693237305	1047.754150390625	-94.07958221435547	73.85627746582033	1020.764892578125	-29.70883560180664	87.14191436767581	1013.744934082031	-76.38053131103516	287.4457397460938	883.5631103515627	6.988084316253699	243.9215087890626	848.1397094726565	-46.07546615600584	348.2861328125001	830.9018554687502	18.0647296905518	278.4660034179688	781.9086914062502	-33.35798645019528	-34.84476470947269	1201.894653320313	245.3753051757813	-8.586421012878446	1332.740112304688	220.4169921875001	39.85356521606442	1345.175170898438	325.8412780761719	91.30202484130857	1341.225463867188	351.3250122070313	-3.46076512336736	1043.768310546875	401.0837402343751	-28.70912551879887	1034.606079101563	326.3338623046876	-36.76790618896489	1033.234130859375	371.7458496093751	2.304394960403393	788.055358886719	409.4892883300782	-72.2088928222657	814.9440917968752	419.8412170410157	-31.44164848327642	701.3011474609376	414.3096313476564	-112.6676788330079	759.7656250000001	422.3464660644532	
88	0.87	194.6717681884766	911.1971435546877	55.96430206298832	9.820803642272935	922.512390136719	135.142074584961	25.88196754455564	921.7772216796877	249.0938415527344	218.3221282958985	907.8715820312502	276.3733825683594	97.30448150634768	838.5344848632815	2.991098403930676	-20.49028778076173	443.0612792968751	74.00014495849611	-59.83903503417971	403.4480895996095	68.64790344238281	-8.498480796813983	372.7630920410157	127.4245834350586	-186.0038146972657	83.79263305664064	94.53757476806639	-243.5267181396485	44.06763458251954	126.7236175537109	-55.39992904663089	14.58913803100586	178.558090209961	-41.65924453735354	32.21977233886719	123.6574783325196	-85.95323181152347	17.71617317199707	66.28766632080078	143.2494354248047	819.7666015625002	352.0742492675782	335.0245971679688	468.1177673339845	286.1346740722657	330.281494140625	401.2932128906251	289.2522277832032	393.5675354003907	413.1875305175782	246.1263580322267	461.3380737304688	71.3671112060547	278.910369873047	442.0347900390626	19.42256546020508	229.5330963134767	621.7037963867189	95.75366210937501	217.1582489013673	611.0448608398439	98.85491943359378	267.959197998047	581.3068237304689	63.65507888793947	306.4241638183595	54.42343139648437	1401.454467773438	178.872314453125	-15.12452411651614	1163.469360351563	166.7231903076172	208.0680847167969	1101.551513671875	162.1189880371094	178.0405120849609	1317.921630859375	166.1423492431641	-17.56227493286134	1201.6474609375	87.15242004394533	6.98729181289672	1334.173706054688	88.62308502197267	52.41479492187501	1344.99609375	5.616172313690193	93.89126586914064	1346.54150390625	-12.68838119506835	140.0626831054688	1045.547973632813	-94.37209320068359	92.34898376464845	1017.676330566406	-31.09931373596191	106.3907165527344	1011.007934570313	-77.39382934570312	307.7611999511719	884.1987304687502	8.978710174560586	265.9974670410157	847.8201904296877	-44.58156585693357	369.6313171386719	833.4645996093752	21.25191879272466	302.0794067382813	782.4439086914065	-31.14365386962888	-16.80408859252933	1198.891967773438	245.6396026611329	9.519863128662085	1329.82080078125	220.8798980712891	57.9900207519531	1342.097778320313	326.2785034179688	109.414909362793	1338.098510742188	351.8419494628907	12.4746236801147	1041.385009765625	401.7884521484376	-12.71804141998295	1032.23876953125	326.9543762207032	-20.93116378784185	1031.192260742188	372.2829284667969	15.54338932037349	785.743835449219	410.8804931640626	-58.55216217041022	813.546813964844	421.054901123047	-19.16980743408208	699.4064331054689	416.1242675781251	-99.62855529785165	759.0101928710939	423.8286132812501	
89	0.88	212.8807678222657	908.786315917969	56.10213470458989	28.22503280639647	920.0407714843752	136.2624816894532	44.44447326660154	919.4927368164065	249.9933166503907	237.2252655029297	905.7651977539065	276.7473449707032	114.5789566040039	836.153747558594	4.308807849884048	-5.093673229217539	441.6460266113282	74.56811523437501	-46.28572082519533	403.0720825195314	69.43362426757814	4.344078063964829	370.6429443359376	128.290771484375	-183.7021942138672	88.06630706787111	94.00730895996092	-242.4703369140626	50.61204528808595	126.1316452026367	-56.06360626220707	14.16802978515625	178.6935577392578	-42.01833343505862	31.68157768249512	123.8622055053711	-86.21597290039065	17.59564018249512	66.46535491943359	162.1419982910156	817.6541748046877	352.7563476562501	354.5637512207031	466.6331481933595	285.2325134277345	350.3365783691406	399.7064819335939	288.4393615722657	412.9985961914063	411.8333435058595	244.4073028564454	482.3778686523438	70.72322845458986	277.132537841797	462.3133239746095	18.56546974182129	228.2613677978517	641.6072998046876	95.51904296875001	212.8682861328126	631.8450317382814	98.54713439941409	263.981170654297	602.6250610351564	63.11399078369142	302.8254699707032	72.6560592651367	1398.90966796875	179.7142028808594	3.134374856948833	1160.932373046875	167.4803771972657	226.1951141357422	1098.8251953125	162.4822845458985	196.2587585449219	1315.275024414063	166.8005676269532	0.4530733823776139	1199.14892578125	87.98455810546876	25.06483650207519	1331.719604492188	89.42793273925783	70.39238739013673	1342.487182617188	6.312246799469005	111.8406295776367	1344.024291992188	-12.02820777893065	159.2929382324219	1043.55126953125	-94.43744659423828	110.5987930297852	1015.028686523438	-32.15494155883788	125.2646789550782	1008.640747070313	-78.1136474609375	327.3809814453126	884.538513183594	10.72492694854741	287.1452941894532	847.3907470703127	-43.28661346435544	390.0865783691407	835.4915161132815	23.98731994628911	324.5569763183594	782.7429199218752	-29.2987251281738	1.411359906196564	1196.24365234375	246.0517120361329	27.76931381225584	1327.267333984375	221.4875030517579	76.24777221679685	1339.386108398438	326.8572387695313	127.6521453857422	1335.361694335938	352.4950866699219	28.80951690673824	1039.275512695313	402.5503540039064	3.604109764099082	1030.196044921875	327.7259521484376	-4.725072383880661	1029.389770507813	372.9772949218751	29.72107887268062	783.7640380859377	412.1636047363282	-44.03600692749029	812.224548339844	422.161590576172	-5.52395820617681	697.7921142578126	417.8374938964845	-85.49736022949226	758.1125488281251	425.1939697265626	
